<svg width="192" height="100" viewBox="0 0 192 100" fill="none" xmlns="http://www.w3.org/2000/svg">
<g filter="url(#filter0_b_751_65)">
<path d="M50 62.5V75" stroke="#000711" stroke-opacity="0.9" stroke-width="10" stroke-linecap="round"/>
<path d="M90.1496 53.9913L88.9884 62.0633C86.9571 76.1779 85.9417 83.235 81.0459 87.4508C76.1496 91.6667 68.9692 91.6667 54.6088 91.6667H45.3913C31.0307 91.6667 23.8504 91.6667 18.9543 87.4508C14.0582 83.235 13.0427 76.1779 11.0119 62.0633L9.85032 53.9913C8.26932 43.0033 7.47882 37.5095 9.73074 32.8123C11.9827 28.115 16.7758 25.2598 26.3622 19.5492L32.1323 16.112C40.8377 10.9262 45.1904 8.33334 50 8.33334C54.8096 8.33334 59.1625 10.9262 67.8675 16.112L73.6379 19.5492C83.2242 25.2598 88.0175 28.115 90.2692 32.8123" stroke="#000711" stroke-opacity="0.9" stroke-width="10" stroke-linecap="round"/>
<path d="M122.128 37.3584V40.7861H110.995V37.3584H122.128ZM112.299 28.6719V50H107.904V28.6719H112.299ZM125.263 28.6719V50H120.883V28.6719H125.263ZM128.148 42.2363V41.9287C128.148 40.7666 128.314 39.6973 128.646 38.7207C128.979 37.7344 129.462 36.8799 130.097 36.1572C130.731 35.4346 131.513 34.873 132.44 34.4727C133.368 34.0625 134.433 33.8574 135.634 33.8574C136.835 33.8574 137.904 34.0625 138.842 34.4727C139.779 34.873 140.565 35.4346 141.2 36.1572C141.845 36.8799 142.333 37.7344 142.665 38.7207C142.997 39.6973 143.163 40.7666 143.163 41.9287V42.2363C143.163 43.3887 142.997 44.458 142.665 45.4443C142.333 46.4209 141.845 47.2754 141.2 48.0078C140.565 48.7305 139.784 49.292 138.856 49.6924C137.929 50.0928 136.864 50.293 135.663 50.293C134.462 50.293 133.393 50.0928 132.455 49.6924C131.527 49.292 130.741 48.7305 130.097 48.0078C129.462 47.2754 128.979 46.4209 128.646 45.4443C128.314 44.458 128.148 43.3887 128.148 42.2363ZM132.367 41.9287V42.2363C132.367 42.9004 132.426 43.5205 132.543 44.0967C132.66 44.6729 132.846 45.1807 133.1 45.6201C133.363 46.0498 133.705 46.3867 134.125 46.6309C134.545 46.875 135.058 46.9971 135.663 46.9971C136.249 46.9971 136.752 46.875 137.172 46.6309C137.592 46.3867 137.929 46.0498 138.183 45.6201C138.437 45.1807 138.622 44.6729 138.739 44.0967C138.866 43.5205 138.93 42.9004 138.93 42.2363V41.9287C138.93 41.2842 138.866 40.6787 138.739 40.1123C138.622 39.5361 138.432 39.0283 138.168 38.5889C137.914 38.1396 137.577 37.7881 137.157 37.5342C136.737 37.2803 136.229 37.1533 135.634 37.1533C135.038 37.1533 134.53 37.2803 134.11 37.5342C133.7 37.7881 133.363 38.1396 133.1 38.5889C132.846 39.0283 132.66 39.5361 132.543 40.1123C132.426 40.6787 132.367 41.2842 132.367 41.9287ZM149.975 37.4316V50H145.741V34.1504H149.711L149.975 37.4316ZM149.389 41.5186H148.217C148.217 40.415 148.349 39.3994 148.612 38.4717C148.886 37.5342 149.281 36.7236 149.799 36.04C150.326 35.3467 150.976 34.8096 151.747 34.4287C152.519 34.0479 153.412 33.8574 154.428 33.8574C155.131 33.8574 155.775 33.9648 156.361 34.1797C156.947 34.3848 157.45 34.7119 157.87 35.1611C158.3 35.6006 158.632 36.1768 158.866 36.8896C159.101 37.5928 159.218 38.4375 159.218 39.4238V50H154.999V39.8926C154.999 39.1699 154.901 38.6133 154.706 38.2227C154.511 37.832 154.232 37.5586 153.871 37.4023C153.52 37.2461 153.095 37.168 152.597 37.168C152.05 37.168 151.571 37.2803 151.161 37.5049C150.761 37.7295 150.429 38.042 150.165 38.4424C149.901 38.833 149.706 39.292 149.579 39.8193C149.452 40.3467 149.389 40.9131 149.389 41.5186ZM158.822 41.0352L157.313 41.2256C157.313 40.1904 157.44 39.2285 157.694 38.3398C157.958 37.4512 158.344 36.6699 158.852 35.9961C159.369 35.3223 160.009 34.7998 160.771 34.4287C161.532 34.0479 162.411 33.8574 163.407 33.8574C164.169 33.8574 164.862 33.9697 165.487 34.1943C166.112 34.4092 166.645 34.7559 167.084 35.2344C167.533 35.7031 167.875 36.3184 168.109 37.0801C168.354 37.8418 168.476 38.7744 168.476 39.8779V50H164.242V39.8779C164.242 39.1455 164.145 38.5889 163.949 38.208C163.764 37.8174 163.49 37.5488 163.129 37.4023C162.777 37.2461 162.357 37.168 161.869 37.168C161.361 37.168 160.917 37.2705 160.536 37.4756C160.155 37.6709 159.838 37.9443 159.584 38.2959C159.33 38.6475 159.14 39.0576 159.013 39.5264C158.886 39.9854 158.822 40.4883 158.822 41.0352ZM179.037 50.293C177.807 50.293 176.703 50.0977 175.727 49.707C174.75 49.3066 173.92 48.7549 173.236 48.0518C172.562 47.3486 172.045 46.5332 171.684 45.6055C171.322 44.668 171.142 43.6719 171.142 42.6172V42.0312C171.142 40.8301 171.312 39.7314 171.654 38.7354C171.996 37.7393 172.484 36.875 173.119 36.1426C173.764 35.4102 174.545 34.8486 175.463 34.458C176.381 34.0576 177.416 33.8574 178.568 33.8574C179.691 33.8574 180.688 34.043 181.557 34.4141C182.426 34.7852 183.153 35.3125 183.739 35.9961C184.335 36.6797 184.784 37.5 185.087 38.457C185.39 39.4043 185.541 40.459 185.541 41.6211V43.3789H172.943V40.5664H181.396V40.2441C181.396 39.6582 181.288 39.1357 181.073 38.6768C180.868 38.208 180.556 37.8369 180.136 37.5635C179.716 37.29 179.179 37.1533 178.524 37.1533C177.968 37.1533 177.489 37.2754 177.089 37.5195C176.688 37.7637 176.361 38.1055 176.107 38.5449C175.863 38.9844 175.678 39.502 175.551 40.0977C175.434 40.6836 175.375 41.3281 175.375 42.0312V42.6172C175.375 43.252 175.463 43.8379 175.639 44.375C175.824 44.9121 176.083 45.376 176.415 45.7666C176.757 46.1572 177.167 46.46 177.646 46.6748C178.134 46.8896 178.686 46.9971 179.301 46.9971C180.062 46.9971 180.771 46.8506 181.425 46.5576C182.089 46.2549 182.66 45.8008 183.139 45.1953L185.189 47.4219C184.857 47.9004 184.403 48.3594 183.827 48.7988C183.261 49.2383 182.577 49.5996 181.776 49.8828C180.976 50.1562 180.062 50.293 179.037 50.293ZM116.938 69.8945V71.4277H109.242V69.8945H116.938ZM109.535 63.7812V78H107.65V63.7812H109.535ZM118.578 63.7812V78H116.703V63.7812H118.578ZM127.885 76.1934V70.7539C127.885 70.3372 127.8 69.9759 127.631 69.6699C127.468 69.3574 127.221 69.1165 126.889 68.9473C126.557 68.778 126.146 68.6934 125.658 68.6934C125.202 68.6934 124.802 68.7715 124.457 68.9277C124.118 69.084 123.852 69.2891 123.656 69.543C123.467 69.7969 123.373 70.0703 123.373 70.3633H121.566C121.566 69.9857 121.664 69.6113 121.859 69.2402C122.055 68.8691 122.335 68.5339 122.699 68.2344C123.07 67.9284 123.513 67.6875 124.027 67.5117C124.548 67.3294 125.128 67.2383 125.766 67.2383C126.534 67.2383 127.211 67.3685 127.797 67.6289C128.389 67.8893 128.852 68.2832 129.184 68.8105C129.522 69.3314 129.691 69.9857 129.691 70.7734V75.6953C129.691 76.0469 129.721 76.4212 129.779 76.8184C129.844 77.2155 129.939 77.5573 130.062 77.8438V78H128.178C128.087 77.7917 128.015 77.515 127.963 77.1699C127.911 76.8184 127.885 76.4928 127.885 76.1934ZM128.197 71.5938L128.217 72.8633H126.391C125.876 72.8633 125.417 72.9056 125.014 72.9902C124.61 73.0684 124.271 73.1888 123.998 73.3516C123.725 73.5143 123.516 73.7194 123.373 73.9668C123.23 74.2077 123.158 74.4909 123.158 74.8164C123.158 75.1484 123.233 75.4512 123.383 75.7246C123.533 75.998 123.757 76.2161 124.057 76.3789C124.363 76.5352 124.737 76.6133 125.18 76.6133C125.733 76.6133 126.221 76.4961 126.645 76.2617C127.068 76.0273 127.403 75.7409 127.65 75.4023C127.904 75.0638 128.041 74.735 128.061 74.416L128.832 75.2852C128.786 75.5586 128.663 75.8613 128.461 76.1934C128.259 76.5254 127.989 76.8444 127.65 77.1504C127.318 77.4499 126.921 77.7005 126.459 77.9023C126.003 78.0977 125.489 78.1953 124.916 78.1953C124.2 78.1953 123.572 78.0553 123.031 77.7754C122.497 77.4954 122.081 77.1211 121.781 76.6523C121.488 76.1771 121.342 75.6465 121.342 75.0605C121.342 74.4941 121.452 73.9961 121.674 73.5664C121.895 73.1302 122.214 72.7689 122.631 72.4824C123.048 72.1895 123.549 71.9681 124.135 71.8184C124.721 71.6686 125.375 71.5938 126.098 71.5938H128.197ZM134.34 69.0938V78H132.533V67.4336H134.291L134.34 69.0938ZM137.641 67.375L137.631 69.0547C137.481 69.0221 137.338 69.0026 137.201 68.9961C137.071 68.9831 136.921 68.9766 136.752 68.9766C136.335 68.9766 135.967 69.0417 135.648 69.1719C135.329 69.3021 135.059 69.4844 134.838 69.7188C134.617 69.9531 134.441 70.2331 134.311 70.5586C134.187 70.8776 134.105 71.2292 134.066 71.6133L133.559 71.9062C133.559 71.2682 133.62 70.6693 133.744 70.1094C133.874 69.5495 134.073 69.0547 134.34 68.625C134.607 68.1888 134.945 67.8503 135.355 67.6094C135.772 67.362 136.267 67.2383 136.84 67.2383C136.97 67.2383 137.12 67.2546 137.289 67.2871C137.458 67.3132 137.576 67.3424 137.641 67.375ZM139.301 63H141.117V75.9492L140.961 78H139.301V63ZM148.256 72.6289V72.834C148.256 73.6022 148.165 74.3151 147.982 74.9727C147.8 75.6237 147.533 76.1901 147.182 76.6719C146.83 77.1536 146.4 77.528 145.893 77.7949C145.385 78.0618 144.802 78.1953 144.145 78.1953C143.474 78.1953 142.885 78.0814 142.377 77.8535C141.876 77.6191 141.452 77.2839 141.107 76.8477C140.762 76.4115 140.486 75.8841 140.277 75.2656C140.076 74.6471 139.936 73.9505 139.857 73.1758V72.2773C139.936 71.4961 140.076 70.7962 140.277 70.1777C140.486 69.5592 140.762 69.0319 141.107 68.5957C141.452 68.153 141.876 67.8177 142.377 67.5898C142.878 67.3555 143.461 67.2383 144.125 67.2383C144.789 67.2383 145.378 67.3685 145.893 67.6289C146.407 67.8828 146.837 68.2474 147.182 68.7227C147.533 69.1979 147.8 69.7676 147.982 70.4316C148.165 71.0892 148.256 71.8216 148.256 72.6289ZM146.439 72.834V72.6289C146.439 72.1016 146.391 71.6068 146.293 71.1445C146.195 70.6758 146.039 70.2656 145.824 69.9141C145.609 69.556 145.326 69.276 144.975 69.0742C144.623 68.8659 144.19 68.7617 143.676 68.7617C143.22 68.7617 142.823 68.8398 142.484 68.9961C142.152 69.1523 141.869 69.3639 141.635 69.6309C141.4 69.8913 141.208 70.1908 141.059 70.5293C140.915 70.8613 140.808 71.2064 140.736 71.5645V73.918C140.84 74.3737 141.01 74.8132 141.244 75.2363C141.485 75.653 141.804 75.9948 142.201 76.2617C142.605 76.5286 143.103 76.6621 143.695 76.6621C144.184 76.6621 144.6 76.5645 144.945 76.3691C145.297 76.1673 145.58 75.8906 145.795 75.5391C146.016 75.1875 146.179 74.7806 146.283 74.3184C146.387 73.8561 146.439 73.3613 146.439 72.834ZM150.062 72.834V72.6094C150.062 71.8477 150.173 71.1413 150.395 70.4902C150.616 69.8327 150.935 69.263 151.352 68.7812C151.768 68.293 152.273 67.9154 152.865 67.6484C153.458 67.375 154.122 67.2383 154.857 67.2383C155.6 67.2383 156.267 67.375 156.859 67.6484C157.458 67.9154 157.966 68.293 158.383 68.7812C158.806 69.263 159.128 69.8327 159.35 70.4902C159.571 71.1413 159.682 71.8477 159.682 72.6094V72.834C159.682 73.5957 159.571 74.3021 159.35 74.9531C159.128 75.6042 158.806 76.1738 158.383 76.6621C157.966 77.1439 157.462 77.5215 156.869 77.7949C156.283 78.0618 155.619 78.1953 154.877 78.1953C154.135 78.1953 153.467 78.0618 152.875 77.7949C152.283 77.5215 151.775 77.1439 151.352 76.6621C150.935 76.1738 150.616 75.6042 150.395 74.9531C150.173 74.3021 150.062 73.5957 150.062 72.834ZM151.869 72.6094V72.834C151.869 73.3613 151.931 73.8594 152.055 74.3281C152.178 74.7904 152.364 75.2005 152.611 75.5586C152.865 75.9167 153.181 76.1999 153.559 76.4082C153.936 76.61 154.376 76.7109 154.877 76.7109C155.372 76.7109 155.805 76.61 156.176 76.4082C156.553 76.1999 156.866 75.9167 157.113 75.5586C157.361 75.2005 157.546 74.7904 157.67 74.3281C157.8 73.8594 157.865 73.3613 157.865 72.834V72.6094C157.865 72.0885 157.8 71.597 157.67 71.1348C157.546 70.666 157.357 70.2526 157.104 69.8945C156.856 69.5299 156.544 69.2435 156.166 69.0352C155.795 68.8268 155.359 68.7227 154.857 68.7227C154.363 68.7227 153.926 68.8268 153.549 69.0352C153.178 69.2435 152.865 69.5299 152.611 69.8945C152.364 70.2526 152.178 70.666 152.055 71.1348C151.931 71.597 151.869 72.0885 151.869 72.6094ZM163.754 69.0938V78H161.947V67.4336H163.705L163.754 69.0938ZM167.055 67.375L167.045 69.0547C166.895 69.0221 166.752 69.0026 166.615 68.9961C166.485 68.9831 166.335 68.9766 166.166 68.9766C165.749 68.9766 165.382 69.0417 165.062 69.1719C164.743 69.3021 164.473 69.4844 164.252 69.7188C164.031 69.9531 163.855 70.2331 163.725 70.5586C163.601 70.8776 163.52 71.2292 163.48 71.6133L162.973 71.9062C162.973 71.2682 163.035 70.6693 163.158 70.1094C163.288 69.5495 163.487 69.0547 163.754 68.625C164.021 68.1888 164.359 67.8503 164.77 67.6094C165.186 67.362 165.681 67.2383 166.254 67.2383C166.384 67.2383 166.534 67.2546 166.703 67.2871C166.872 67.3132 166.99 67.3424 167.055 67.375Z" fill="#000711" fill-opacity="0.9"/>
</g>
<defs>
<filter id="filter0_b_751_65" x="-4" y="-4" width="193.541" height="108" filterUnits="userSpaceOnUse" color-interpolation-filters="sRGB">
<feFlood flood-opacity="0" result="BackgroundImageFix"/>
<feGaussianBlur in="BackgroundImageFix" stdDeviation="2"/>
<feComposite in2="SourceAlpha" operator="in" result="effect1_backgroundBlur_751_65"/>
<feBlend mode="normal" in="SourceGraphic" in2="effect1_backgroundBlur_751_65" result="shape"/>
</filter>
</defs>
</svg>
